<?xml version="1.0" encoding="UTF-8"?>
<svg xmlns="http://www.w3.org/2000/svg" viewBox="0 0 512 512" width="512" height="512">
  <defs>
    <linearGradient id="bg" x1="0" y1="0" x2="1" y2="1">
      <stop offset="0%" stop-color="#e18486"/>
      <stop offset="100%" stop-color="#d36f72"/>
    </linearGradient>
  </defs>
  <!-- Rounded square background -->
  <rect x="32" y="32" width="448" height="448" rx="96" ry="96" fill="url(#bg)"/>

  <!-- Simple diary/book mark -->
  <g transform="translate(128,116)">
    <rect x="0" y="0" width="256" height="280" rx="24" ry="24" fill="white" opacity="0.15"/>
    <rect x="24" y="24" width="208" height="232" rx="16" ry="16" fill="white" opacity="0.2"/>
    <!-- Heart on cover -->
    <path fill="white" d="M128 188c-24-20-40-34-40-54 0-18 14-32 32-32 12 0 22 6 28 16 6-10 16-16 28-16 18 0 32 14 32 32 0 20-16 34-40 54-6 5-12 9-20 16-8-7-14-11-20-16z"/>
  </g>
</svg>

